<mxfile host="65bd71144e" modified="2020-12-14T16:20:13.395Z" agent="5.0 (Windows NT 10.0; Win64; x64) AppleWebKit/537.36 (KHTML, like Gecko) Code/1.52.0 Chrome/83.0.4103.122 Electron/9.3.5 Safari/537.36" etag="Pc0gM1mFyVrRhtMH0tGh" version="13.10.0" type="embed">
    <diagram id="dBRtx-TbVDWdsvKZ1wc_" name="Page-1">
        <mxGraphModel dx="1903" dy="512" grid="1" gridSize="10" guides="1" tooltips="1" connect="1" arrows="1" fold="1" page="1" pageScale="1" pageWidth="850" pageHeight="1100" background="none" math="0" shadow="0">
            <root>
                <mxCell id="0"/>
                <mxCell id="1" parent="0"/>
                <mxCell id="52" style="edgeStyle=orthogonalEdgeStyle;rounded=0;orthogonalLoop=1;jettySize=auto;html=1;exitX=0.5;exitY=0.5;exitDx=0;exitDy=0;exitPerimeter=0;" parent="1" edge="1">
                    <mxGeometry relative="1" as="geometry">
                        <mxPoint x="220" y="530" as="targetPoint"/>
                    </mxGeometry>
                </mxCell>
                <mxCell id="171" value="&lt;u&gt;Assignment3 DB&lt;br&gt;&lt;/u&gt;{OS=independent&lt;br&gt;vendor=Oracle&lt;br&gt;Version=8.0}" style="shape=cylinder3;whiteSpace=wrap;html=1;boundedLbl=1;backgroundOutline=1;size=15;" vertex="1" parent="1">
                    <mxGeometry x="650" y="215" width="130" height="110" as="geometry"/>
                </mxCell>
                <mxCell id="173" style="edgeStyle=none;rounded=0;orthogonalLoop=1;jettySize=auto;html=1;exitX=0;exitY=0;exitDx=100;exitDy=0;exitPerimeter=0;entryX=0;entryY=0.5;entryDx=0;entryDy=0;entryPerimeter=0;endArrow=none;endFill=0;jumpStyle=arc;jumpSize=15;" edge="1" parent="1" source="172" target="171">
                    <mxGeometry relative="1" as="geometry"/>
                </mxCell>
                <mxCell id="177" style="edgeStyle=orthogonalEdgeStyle;rounded=0;jumpStyle=arc;jumpSize=15;orthogonalLoop=1;jettySize=auto;html=1;exitX=0;exitY=0;exitDx=110;exitDy=200;exitPerimeter=0;endArrow=none;endFill=0;" edge="1" parent="1" source="172">
                    <mxGeometry relative="1" as="geometry">
                        <mxPoint x="160" y="279.75862068965523" as="targetPoint"/>
                    </mxGeometry>
                </mxCell>
                <mxCell id="172" value="" style="verticalAlign=top;align=center;spacingTop=8;spacingLeft=2;spacingRight=12;shape=cube;size=10;direction=south;fontStyle=4;html=1;" vertex="1" parent="1">
                    <mxGeometry x="310" y="170" width="200" height="210" as="geometry"/>
                </mxCell>
                <mxCell id="174" value="&amp;lt;&amp;lt;device&amp;gt;&amp;gt;&lt;br&gt;:ApplicationServer&lt;br&gt;{OS=independent}" style="text;html=1;strokeColor=none;fillColor=none;align=center;verticalAlign=middle;whiteSpace=wrap;rounded=0;" vertex="1" parent="1">
                    <mxGeometry x="390" y="200" width="40" height="20" as="geometry"/>
                </mxCell>
                <mxCell id="175" value="&amp;lt;&amp;lt;JDBC&amp;gt;&amp;gt;" style="text;html=1;align=center;verticalAlign=middle;resizable=0;points=[];autosize=1;" vertex="1" parent="1">
                    <mxGeometry x="550" y="250" width="70" height="20" as="geometry"/>
                </mxCell>
                <mxCell id="178" value="" style="verticalAlign=top;align=center;spacingTop=8;spacingLeft=2;spacingRight=12;shape=cube;size=10;direction=south;fontStyle=4;html=1;" vertex="1" parent="1">
                    <mxGeometry x="-40" y="170" width="200" height="210" as="geometry"/>
                </mxCell>
                <mxCell id="179" value="&amp;lt;&amp;lt;device&amp;gt;&amp;gt;&lt;br&gt;:ApplicationClient&lt;br&gt;{OS=independent}" style="text;html=1;strokeColor=none;fillColor=none;align=center;verticalAlign=middle;whiteSpace=wrap;rounded=0;" vertex="1" parent="1">
                    <mxGeometry x="40" y="200" width="40" height="20" as="geometry"/>
                </mxCell>
                <mxCell id="181" value="0..*" style="text;html=1;align=center;verticalAlign=middle;resizable=0;points=[];autosize=1;" vertex="1" parent="1">
                    <mxGeometry x="280" y="260" width="30" height="20" as="geometry"/>
                </mxCell>
                <mxCell id="182" value="0..*" style="text;html=1;align=center;verticalAlign=middle;resizable=0;points=[];autosize=1;" vertex="1" parent="1">
                    <mxGeometry x="160" y="260" width="30" height="20" as="geometry"/>
                </mxCell>
                <mxCell id="183" value="TCP/IP" style="text;html=1;align=center;verticalAlign=middle;resizable=0;points=[];autosize=1;" vertex="1" parent="1">
                    <mxGeometry x="210" y="260" width="50" height="20" as="geometry"/>
                </mxCell>
                <mxCell id="184" value="0..*" style="text;html=1;align=center;verticalAlign=middle;resizable=0;points=[];autosize=1;" vertex="1" parent="1">
                    <mxGeometry x="510" y="250" width="30" height="20" as="geometry"/>
                </mxCell>
                <mxCell id="185" value="0..*" style="text;html=1;align=center;verticalAlign=middle;resizable=0;points=[];autosize=1;" vertex="1" parent="1">
                    <mxGeometry x="620" y="250" width="30" height="20" as="geometry"/>
                </mxCell>
            </root>
        </mxGraphModel>
    </diagram>
</mxfile>